<region> sample=MSF_021.wav
pan=-64
key=0
pitch_keycenter=21
//ampeg_release=1.125

<region> sample=MSF_021.wav
pan=-63
key=1
pitch_keycenter=21
//ampeg_release=1.125

<region> sample=MSF_021.wav
pan=-62
key=2
pitch_keycenter=21
//ampeg_release=1.125

<region> sample=MSF_021.wav
pan=-61
key=3
pitch_keycenter=21
//ampeg_release=1.125

<region> sample=MSF_021.wav
pan=-60
key=4
pitch_keycenter=21
//ampeg_release=1.125

<region> sample=MSF_021.wav
pan=-59
key=5
pitch_keycenter=21
//ampeg_release=1.125

<region> sample=MSF_021.wav
pan=-58
key=6
pitch_keycenter=21
//ampeg_release=1.125

<region> sample=MSF_021.wav
pan=-57
key=7
pitch_keycenter=21
//ampeg_release=1.125

<region> sample=MSF_021.wav
pan=-56
key=8
pitch_keycenter=21
//ampeg_release=1.125

<region> sample=MSF_021.wav
pan=-55
key=9
pitch_keycenter=21
//ampeg_release=1.125

<region> sample=MSF_021.wav
pan=-54
key=10
pitch_keycenter=21
//ampeg_release=1.125

<region> sample=MSF_021.wav
pan=-53
key=11
pitch_keycenter=21
//ampeg_release=1.125

<region> sample=MSF_021.wav
pan=-52
key=12
pitch_keycenter=21
//ampeg_release=1.125

<region> sample=MSF_021.wav
pan=-51
key=13
pitch_keycenter=21
//ampeg_release=1.125

<region> sample=MSF_021.wav
pan=-50
key=14
pitch_keycenter=21
//ampeg_release=1.125

<region> sample=MSF_021.wav
pan=-49
key=15
pitch_keycenter=21
//ampeg_release=1.125

<region> sample=MSF_021.wav
pan=-48
key=16
pitch_keycenter=21
//ampeg_release=1.125

<region> sample=MSF_021.wav
pan=-47
key=17
pitch_keycenter=21
//ampeg_release=1.125

<region> sample=MSF_021.wav
pan=-46
key=18
pitch_keycenter=21
//ampeg_release=1.125

<region> sample=MSF_021.wav
pan=-45
key=19
pitch_keycenter=21
//ampeg_release=1.125

<region> sample=MSF_021.wav
pan=-44
key=20
pitch_keycenter=21
//ampeg_release=1.125

<region> sample=MSF_021.wav
pan=-43
key=21
//ampeg_release=1.125

<region> sample=MSF_022.wav
pan=-42
key=22
//ampeg_release=1.125

<region> sample=MSF_023.wav
pan=-41
key=23
//ampeg_release=1.125

<region> sample=MSF_024.wav
pan=-40
key=24
//ampeg_release=1.125

<region> sample=MSF_025.wav
pan=-39
key=25
//ampeg_release=1.125

<region> sample=MSF_026.wav
pan=-38
key=26
//ampeg_release=1.125

<region> sample=MSF_027.wav
pan=-37
key=27
//ampeg_release=1.125

<region> sample=MSF_028.wav
pan=-36
key=28
//ampeg_release=1.125

<region> sample=MSF_029.wav
pan=-35
key=29
//ampeg_release=1.125

<region> sample=MSF_030.wav
pan=-34
key=30
//ampeg_release=1.125

<region> sample=MSF_031.wav
pan=-33
key=31
//ampeg_release=1.125

<region> sample=MSF_032.wav
pan=-32
key=32 
//ampeg_release=1.125

<region> sample=MSF_033.wav
pan=-31
key=33
//ampeg_release=1.125

<region> sample=MSF_034.wav
pan=-30
key=34
//ampeg_release=1.125

<region> sample=MSF_035.wav
pan=-29
key=35
//ampeg_release=1.125

<region> sample=MSF_036.wav
pan=-28
key=36
//ampeg_release=1.125

<region> sample=MSF_037.wav
pan=-27
key=37
//ampeg_release=1.125

<region> sample=MSF_038.wav
pan=-26
key=38
//ampeg_release=1.125

<region> sample=MSF_039.wav
pan=-25
key=39
//ampeg_release=1.125

<region> sample=MSF_040.wav
pan=-24
key=40
//ampeg_release=1.125

<region> sample=MSF_041.wav
pan=-23
key=41
//ampeg_release=1.125

<region> sample=MSF_042.wav
pan=-22
key=42
//ampeg_release=1.125

<region> sample=MSF_043.wav
pan=-21
key=43
//ampeg_release=1.125

<region> sample=MSF_044.wav
pan=-20
key=44
//ampeg_release=1.125

<region> sample=MSF_045.wav
pan=-19
key=45
//ampeg_release=1.125

<region> sample=MSF_046.wav
pan=-18
key=46
//ampeg_release=1.125

<region> sample=MSF_047.wav
pan=-17
key=47
//ampeg_release=1.125

<region> sample=MSF_048.wav
pan=-16
key=48
//ampeg_release=1.125

<region> sample=MSF_049.wav
pan=-15
key=49
//ampeg_release=1.125

<region> sample=MSF_050.wav
pan=-14
key=50
//ampeg_release=1.125

<region> sample=MSF_051.wav
pan=-13
key=51
//ampeg_release=1.125

<region> sample=MSF_052.wav
pan=-12
key=52
//ampeg_release=1.125

<region> sample=MSF_053.wav
pan=-11
key=53
//ampeg_release=1.125

<region> sample=MSF_054.wav
pan=-10
key=54
//ampeg_release=1.125

<region> sample=MSF_055.wav
pan=-9
key=55
//ampeg_release=1.125

<region> sample=MSF_056.wav
pan=-8
key=56
//ampeg_release=1.125

<region> sample=MSF_057.wav
pan=-7
key=57
//ampeg_release=1.125

<region> sample=MSF_058.wav
pan=-6
key=58
//ampeg_release=1.125

<region> sample=MSF_059.wav
pan=-5
key=59
//ampeg_release=1.125

<region> sample=MSF_060.wav
pan=-4
key=60
//ampeg_release=1.125

<region> sample=MSF_061.wav
pan=-3
key=61
//ampeg_release=1.125

<region> sample=MSF_062.wav
pan=-2
key=62
//ampeg_release=1.125

<region> sample=MSF_063.wav
pan=-1
key=63
//ampeg_release=1.125

<region> sample=MSF_064.wav
pan=0
key=64
//ampeg_release=1.125

<region> sample=MSF_065.wav
pan=1
key=65
//ampeg_release=1.125

<region> sample=MSF_066.wav
pan=2
key=66
//ampeg_release=1.125

<region> sample=MSF_067.wav
pan=3
key=67
//ampeg_release=1.125

<region> sample=MSF_068.wav
pan=4
key=68
//ampeg_release=1.125

<region> sample=MSF_069.wav
pan=5
key=69
//ampeg_release=1.125

<region> sample=MSF_070.wav
pan=6
key=70
//ampeg_release=1.125

<region> sample=MSF_071.wav
pan=7
key=71
//ampeg_release=1.125

<region> sample=MSF_072.wav
pan=8
key=72
//ampeg_release=1.125

<region> sample=MSF_073.wav
pan=9
key=73
//ampeg_release=1.125

<region> sample=MSF_074.wav
pan=10
key=74
//ampeg_release=1.125

<region> sample=MSF_075.wav
pan=11
key=75
//ampeg_release=1.125

<region> sample=MSF_076.wav
pan=12
key=76
//ampeg_release=1.125

<region> sample=MSF_077.wav
pan=13
key=77
//ampeg_release=1.125

<region> sample=MSF_078.wav
pan=14
key=78
//ampeg_release=1.125

<region> sample=MSF_079.wav
pan=15
key=79
//ampeg_release=1.125

<region> sample=MSF_080.wav
pan=16
key=80
//ampeg_release=1.125

<region> sample=MSF_081.wav
pan=17
key=81
//ampeg_release=1.125

<region> sample=MSF_082.wav
pan=18
key=82
//ampeg_release=1.125

<region> sample=MSF_083.wav
pan=19
key=83
//ampeg_release=1.125

<region> sample=MSF_084.wav
pan=20
key=84
//ampeg_release=1.125

<region> sample=MSF_085.wav
pan=21
key=85
//ampeg_release=1.125

<region> sample=MSF_086.wav
pan=22
key=86
//ampeg_release=1.125

<region> sample=MSF_087.wav
pan=23
key=87
//ampeg_release=1.125

<region> sample=MSF_088.wav
pan=24
key=88
//ampeg_release=1.125

<region> sample=MSF_089.wav
pan=25
key=89
//ampeg_release=1.125

<region> sample=MSF_090.wav
pan=26
key=90
//ampeg_release=1.125

<region> sample=MSF_091.wav
pan=27
key=91
//ampeg_release=1.125

<region> sample=MSF_092.wav
pan=28
key=92
//ampeg_release=1.125

<region> sample=MSF_093.wav
pan=29
key=93
//ampeg_release=1.125

<region> sample=MSF_094.wav
pan=30
key=94
//ampeg_release=1.125

<region> sample=MSF_095.wav
pan=31
key=95
//ampeg_release=1.125

<region> sample=MSF_096.wav
pan=32
key=96
//ampeg_release=1.125

<region> sample=MSF_097.wav
pan=33
key=97
//ampeg_release=1.125

<region> sample=MSF_098.wav
pan=34
key=98
//ampeg_release=1.125

<region> sample=MSF_099.wav
pan=35
key=99
//ampeg_release=1.125

<region> sample=MSF_100.wav
pan=36
key=100
//ampeg_release=1.125

<region> sample=MSF_101.wav
pan=37
key=101
//ampeg_release=1.125

<region> sample=MSF_102.wav
pan=38
key=102
//ampeg_release=1.125

<region> sample=MSF_103.wav
pan=39
key=103
//ampeg_release=1.125

<region> sample=MSF_104.wav
pan=40
key=104
//ampeg_release=1.125

<region> sample=MSF_105.wav
pan=41
key=105
//ampeg_release=1.125

<region> sample=MSF_106.wav
pan=42
key=106
//ampeg_release=1.125

<region> sample=MSF_107.wav
pan=43
key=107
//ampeg_release=1.125

<region> sample=MSF_108.wav
pan=44
key=108
pitch_keycenter=108
//ampeg_release=1.125

<region> sample=MSF_108.wav
pan=45
key=109
pitch_keycenter=108
//ampeg_release=1.125

<region> sample=MSF_108.wav
pan=46
key=110
pitch_keycenter=108
//ampeg_release=1.125

<region> sample=MSF_108.wav
pan=47
key=111
pitch_keycenter=108
//ampeg_release=1.125

<region> sample=MSF_108.wav
pan=48
key=112
pitch_keycenter=108
//ampeg_release=1.125

<region> sample=MSF_108.wav
pan=49
key=113
pitch_keycenter=108
//ampeg_release=1.125

<region> sample=MSF_108.wav
pan=50
key=114
pitch_keycenter=108
//ampeg_release=1.125

<region> sample=MSF_108.wav
pan=51
key=115
pitch_keycenter=108
//ampeg_release=1.125

<region> sample=MSF_108.wav
pan=52
key=116
pitch_keycenter=108
//ampeg_release=1.125

<region> sample=MSF_108.wav
pan=53
key=117
pitch_keycenter=108
//ampeg_release=1.125

<region> sample=MSF_108.wav
pan=54
key=118
pitch_keycenter=108
//ampeg_release=1.125

<region> sample=MSF_108.wav
pan=55
key=119
pitch_keycenter=108
//ampeg_release=1.125

<region> sample=MSF_108.wav
pan=56
key=120
pitch_keycenter=108
//ampeg_release=1.125

<region> sample=MSF_108.wav
pan=57
key=121
pitch_keycenter=108
//ampeg_release=1.125

<region> sample=MSF_108.wav
pan=58
key=122
pitch_keycenter=108
//ampeg_release=1.125

<region> sample=MSF_108.wav
pan=59
key=123
pitch_keycenter=108
//ampeg_release=1.125

<region> sample=MSF_108.wav
pan=60
key=124
pitch_keycenter=108
//ampeg_release=1.125

<region> sample=MSF_108.wav
pan=61
key=125
pitch_keycenter=108
//ampeg_release=1.125

<region> sample=MSF_108.wav
pan=62
key=126
pitch_keycenter=108
//ampeg_release=1.125

<region> sample=MSF_108.wav
pan=63
key=127
pitch_keycenter=108
//ampeg_release=1.125